<?xml version="1.0" encoding="UTF-8"?>
<svg xmlns="http://www.w3.org/2000/svg" xmlns:xlink="http://www.w3.org/1999/xlink" width="24px" height="24px" viewBox="0 0 24 24" version="1.1">
<g id="surface1">
<path style=" stroke:none;fill-rule:nonzero;fill:rgb(76.862746%,77.254903%,78.431374%);fill-opacity:1;" d="M 12 17 C 10.894531 17 10 16.105469 10 15 C 10 13.890625 10.890625 13 12 13 C 13.105469 13 14 13.894531 14 15 C 14 16.105469 13.105469 17 12 17 M 18 20 L 18 10 L 6 10 L 6 20 L 18 20 M 18 8 C 19.105469 8 20 8.894531 20 10 L 20 20 C 20 21.105469 19.105469 22 18 22 L 6 22 C 4.894531 22 4 21.105469 4 20 L 4 10 C 4 8.890625 4.890625 8 6 8 L 7 8 L 7 6 C 7 3.238281 9.238281 1 12 1 C 14.761719 1 17 3.238281 17 6 L 17 8 L 18 8 M 12 3 C 10.34375 3 9 4.34375 9 6 L 9 8 L 15 8 L 15 6 C 15 4.34375 13.65625 3 12 3 Z M 12 3 "/>
</g>
</svg>
